# xmcd CD database file
#
# Track frame offsets:
#	150
#	12362
#	26557
#	40596
#	58300
#	73922
#	86202
#	100009
#	112646
#	127628
#	150523
#	175055
#	189135
#	199797
#	213196
#	224338
#	255975
#	277299
#
# Disc length: 3883 seconds
#
# Revision: 12
# Processed by: cddbd v1.5.2PL0 Copyright (c) Steve Scherf et al.
# Submitted via: CDex 1.70beta2
#
DISCID=ef0f2912
DTITLE=Various Artist - Blues - I'm Movin' On - Blues For The Blue cd 2
DYEAR=2000
DGENRE=Blues
TTITLE0=John Lee Hooker - Frisco
TTITLE1=Johnny Winter - Low Down Gal Of Mine
TTITLE2=Eric Clapton - Draggin' My Tail
TTITLE3=B.B. King - Evil Child
TTITLE4=Elmore James - I Believe
TTITLE5=Lightnin' Slim - Rooster Blues
TTITLE6=Canned Heat - Louise
TTITLE7=Lightnin' Hopkins - My Baby`s Gone
TTITLE8=Brownie McGhee and Sonny Terry - Walk On
TTITLE9=John Mayall - Baby What Do You Want Me To Do
TTITLE10=Jimi Hendrix - Bleedin' Heart
TTITLE11=Mississippi John Hurt - Spike Drivers Blues
TTITLE12=Ray Charles - I`m Moving On
TTITLE13=Tony Joe White - You Got Me Running
TTITLE14=Big Joe Williams - Sinking Blues
TTITLE15=The Animals and Sonny Boy Williamson - Nobody But You
TTITLE16=Mike Bloomfield - Cherry Red
TTITLE17=The Yardbirds (with Jeff Beck) - Jeff`s Blues
EXTD=Jazz Master Collection 31 YEAR: 2000
EXTT0=
EXTT1=
EXTT2=
EXTT3=
EXTT4=
EXTT5=
EXTT6=
EXTT7=
EXTT8=
EXTT9=
EXTT10=
EXTT11=
EXTT12=
EXTT13=
EXTT14=
EXTT15=
EXTT16=
EXTT17=
PLAYORDER=
